<?xml version="1.0" encoding="UTF-8" standalone="no"?>
<svg id="Layer_1" data-name="Layer 1" xmlns="http://www.w3.org/2000/svg" viewBox="0 0 48 48"><defs><style>
                                                                                                       .cls-1 {
                                                                                                           fill: #e12322;
                                                                                                       }

                                                                                                       .cls-2 {
                                                                                                           fill: #fff;
                                                                                                       }
</style></defs><title>Artboard 51</title><path class="cls-1" d="M38.81,39H9.19V36.08H38.81Z" /><path class="cls-2" d="M21.62,16.13c0,.61.4,1.11,1.21,1.49a16.28,16.28,0,0,0,3,1,31,31,0,0,1,3.48,1.09,6.84,6.84,0,0,1,3,2.23,6.1,6.1,0,0,1,1.21,3.89,6.28,6.28,0,0,1-2.63,5.42,10.93,10.93,0,0,1-6.57,1.9q-7,0-9.62-5.45l5.13-2.88c.67,2,2.17,3,4.49,3,2.1,0,3.16-.66,3.16-2,0-.61-.41-1.11-1.22-1.49a17,17,0,0,0-3-1,31.46,31.46,0,0,1-3.48-1.15A7,7,0,0,1,16.79,20a5.71,5.71,0,0,1-1.22-3.73,6.39,6.39,0,0,1,2.5-5.34A9.81,9.81,0,0,1,24.27,9a10.41,10.41,0,0,1,5.09,1.26A9.16,9.16,0,0,1,33,13.84l-5,2.75a3.78,3.78,0,0,0-3.67-2.34,3.34,3.34,0,0,0-1.9.51A1.56,1.56,0,0,0,21.62,16.13Z" /></svg>